<svg width="774" height="747" viewBox="0 0 774 747" fill="none" xmlns="http://www.w3.org/2000/svg">
<path fill-rule="evenodd" clip-rule="evenodd" d="M587.735 163.046C572.16 149.016 555.155 136.639 537 126.14V100.489C537 45.2613 492.23 0.489258 437 0.489258H337C281.772 0.489258 237 45.2613 237 100.489V126.14C218.844 136.639 201.838 149.016 186.264 163.046L161.877 155.121C109.339 138.06 52.9284 166.813 35.8699 219.342L4.99537 314.465C-12.0586 366.98 16.6874 423.385 69.2069 440.45L93.4984 448.345C97.8589 468.96 104.371 488.97 112.901 508.095L97.8889 528.76C65.4399 573.425 75.3284 635.94 119.983 668.415L200.821 727.245L200.87 727.28C245.551 759.745 308.09 749.84 340.55 705.16L355.645 684.375C366.015 685.45 376.475 685.995 387 685.995C397.525 685.995 407.985 685.45 418.355 684.375L433.475 705.19C465.955 749.86 528.495 759.74 573.16 727.255L654.035 668.4C698.67 635.94 708.56 573.425 676.105 528.755L661.1 508.095C669.63 488.97 676.14 468.96 680.5 448.345L704.795 440.45C757.315 423.385 786.06 366.98 769 314.455L738.13 219.342C721.06 166.801 664.645 138.056 612.12 155.123L587.735 163.046ZM558.345 277.745L536.62 253.277C517.34 231.558 493.56 214.228 466.98 202.615L437 189.516V100.489H337V189.516L307.02 202.615C280.44 214.228 256.661 231.558 237.378 253.277L215.654 277.745L184.535 267.632L130.98 250.228L100.108 345.345L184.789 372.865L187.934 405.485C190.742 434.615 199.843 462.385 214.49 487.27L231.112 515.505L211.856 542.015L178.795 587.535L259.649 646.38L311.965 574.35L343.915 581.355C357.935 584.43 372.35 585.995 387 585.995C401.65 585.995 416.065 584.43 430.085 581.355L462.03 574.35L481.25 600.81L514.35 646.38L595.205 587.535L542.89 515.505L559.51 487.27C574.155 462.385 583.26 434.615 586.065 405.485L589.21 372.865L620.38 362.735L673.89 345.345L643.02 250.228L558.345 277.745ZM487 385.995C487 441.225 442.23 485.995 387 485.995C331.77 485.995 287 441.225 287 385.995C287 330.765 331.77 285.996 387 285.996C442.23 285.996 487 330.765 487 385.995Z" fill="#758CA3"/>
</svg>
