<svg width="835" height="386" viewBox="0 0 835 386" fill="none" xmlns="http://www.w3.org/2000/svg">
<path fill-rule="evenodd" clip-rule="evenodd" d="M175.178 0.0946683C178.335 0.337552 182.788 1.55197 187.727 3.65696C191.937 5.35714 197.928 8.02886 201.085 9.48617C204.243 10.9435 212.582 14.6677 219.706 17.7442C226.831 20.9017 238.328 25.8403 245.209 28.9168C252.091 31.9124 265.045 37.013 273.95 40.2514C282.856 43.4899 292.167 47.0522 294.596 48.1046C297.024 49.1571 303.582 51.9098 309.169 54.1767C314.755 56.4437 319.774 58.7106 320.341 59.1963C321.232 59.925 321.232 60.1679 320.179 60.7346C319.451 61.0584 318.479 61.1394 318.074 60.8965C317.669 60.6536 317.184 60.7346 317.022 61.1394C316.941 61.4632 311.921 63.973 305.93 66.7257C299.939 69.3974 291.438 73.1217 279.213 78.3032L269.66 74.3361C264.478 72.1501 256.949 69.0736 252.901 67.5353C248.852 65.9161 239.056 61.7871 231.041 58.2248C223.026 54.6625 211.691 49.562 205.943 46.8902C200.195 44.1376 185.784 37.6607 173.963 32.4791C162.143 27.2976 149.027 21.6303 144.817 19.8492C140.607 18.068 136.64 16.2869 136.074 15.8821C135.588 15.4773 135.345 14.7486 135.669 14.1819C136.074 13.6152 139.798 11.5912 144.008 9.64809C148.218 7.70502 155.909 4.70946 161.01 2.92831C168.944 0.175629 171.049 -0.229176 175.178 0.0946683ZM116.886 21.7113C117.372 21.7113 118.91 22.7638 120.286 24.0592C121.743 25.4355 124.901 27.3786 127.168 28.4311C129.516 29.5645 133.078 31.1838 135.102 31.9934C137.126 32.8839 146.032 36.851 154.938 40.8991C163.843 44.8662 173.801 49.3191 176.959 50.6954C180.197 52.0717 183.031 53.2052 183.274 53.2052C183.517 53.2052 190.398 56.2817 198.657 60.0869C206.915 63.8921 213.796 66.9686 214.039 66.9686C214.282 66.9686 217.278 68.183 220.678 69.7213C224.159 71.2595 231.527 74.417 237.113 76.6839C242.699 78.9509 250.067 82.1083 253.548 83.8085C256.949 85.4277 259.701 87.1279 259.62 87.5327C259.458 87.9375 257.92 88.7472 256.139 89.3139C254.358 89.9616 250.553 91.5808 247.638 93.0381C244.723 94.4144 241.728 95.8717 240.918 96.2766C240.19 96.6004 239.056 96.9242 238.489 96.9242C238.004 96.9242 233.146 94.8193 227.803 92.2285C222.459 89.5568 217.197 87.1279 216.063 86.8041C214.93 86.4802 208.21 83.7276 201.085 80.651C193.961 77.6555 181.574 72.312 173.559 68.7497C165.543 65.1875 153.885 60.0869 147.651 57.3342C141.417 54.5815 131.54 50.0477 125.791 47.2141C120.043 44.3804 110.976 40.0085 105.713 37.4987C100.532 34.9889 96.2407 32.4791 96.2407 31.9934C96.2407 31.4266 99.4791 29.7265 103.365 28.2692C107.251 26.8928 111.704 24.7878 113.243 23.6544C114.781 22.6019 116.4 21.7113 116.886 21.7113ZM76.1623 38.7132C76.5671 38.6322 77.6196 39.6037 78.5911 40.8181C79.6436 41.9516 82.7201 43.9756 85.4728 45.271C88.3065 46.4854 90.8972 47.5379 91.383 47.5379C91.8688 47.5379 92.1926 47.7808 92.1926 48.1856C92.1926 48.5095 96.8074 51.0193 102.475 53.7719C108.223 56.5246 118.667 61.3013 125.791 64.3778C132.916 67.4544 140.203 70.6928 141.984 71.4215C143.765 72.2311 145.951 73.1217 146.841 73.5265C147.732 73.8503 150.647 75.1457 153.318 76.2791C155.99 77.4936 162.143 80.3272 167.082 82.5132C172.02 84.7801 176.473 86.6422 176.959 86.7231C177.526 86.8041 178.011 86.966 178.011 87.2089C178.011 87.4518 179.55 88.0995 181.412 88.7472C183.355 89.3139 187.808 91.257 191.37 93.0381C194.932 94.7383 198.333 96.1146 198.818 96.1146C199.385 96.1146 201.976 97.2481 204.486 98.5435C207.077 99.9198 210.396 101.377 211.772 101.782C213.472 102.268 214.363 103.077 214.201 103.887C214.12 104.616 211.61 106.073 208.372 107.368C205.214 108.664 197.361 112.064 190.722 115.06C184.164 117.974 177.688 121.213 173.963 124.046L166.029 120.079C161.738 117.974 156.314 115.464 154.128 114.574C151.861 113.683 147.732 111.74 144.817 110.283C141.903 108.745 137.693 106.882 135.507 105.992C133.24 105.101 127.087 102.592 121.743 100.325C116.4 98.1387 107.251 94.0906 101.503 91.4189C95.7549 88.7472 87.3349 85.2658 82.8821 83.5657C78.4292 81.9464 68.39 78.2222 60.6177 75.3076C52.8455 72.393 43.373 68.6688 39.5678 66.9686C35.7627 65.3494 30.824 63.2444 28.6381 62.3538C26.3712 61.4632 24.59 60.2488 24.59 59.6821C24.59 58.9534 28.3952 56.9294 33.9005 54.5815C39.0011 52.3956 46.6924 49.3191 50.9024 47.7808C55.1124 46.1616 62.3989 43.4899 67.0946 41.8706C71.7904 40.1705 75.8384 38.7941 76.1623 38.7132ZM9.20739 102.636C10.098 102.636 14.4699 103.931 18.9227 105.47C23.3756 107.089 30.6621 110.003 35.115 112.027C39.5678 114.051 45.0732 116.399 51.4691 118.909L51.0643 150.241C50.8214 170.967 50.9834 182.707 51.5501 184.811C52.0359 186.593 53.1693 189.021 54.0599 190.317C55.5172 192.179 56.3268 192.503 59.8081 192.503C63.0466 192.503 64.8277 191.936 68.7139 189.507C71.4665 187.807 74.4621 185.945 75.4336 185.459C76.4052 184.892 77.8625 184.407 78.5911 184.407C79.4007 184.407 80.6961 185.054 81.5057 185.864C82.3153 186.593 86.0395 189.75 89.6828 192.908C93.407 196.065 97.9408 199.546 99.8029 200.761C101.665 202.056 104.256 203.028 105.713 203.028C107.737 203.028 108.952 202.38 110.652 200.437C112.838 197.846 113 197.28 113.566 186.431C113.89 180.197 113.89 168.7 113.485 160.847C113 149.836 113.081 146.274 113.89 145.221C114.781 144.088 115.105 144.088 117.129 145.06C118.343 145.707 122.634 147.569 126.601 149.27C130.568 150.889 136.397 153.237 139.555 154.451C142.712 155.665 149.432 158.58 154.533 160.847C159.633 163.195 164.086 165.462 164.41 166.028C164.734 166.595 164.977 215.577 165.058 274.921C165.058 359.769 164.815 383.166 164.086 384.462C163.196 385.919 162.548 386.162 160.2 385.676C158.662 385.433 155.99 384.3 154.371 383.166C152.671 382.033 150.404 380.899 149.27 380.576C148.137 380.171 147.003 379.442 146.841 378.956C146.599 378.39 145.627 377.58 144.655 377.094C143.603 376.689 142.227 375.961 141.579 375.475C140.931 375.07 138.179 373.694 135.507 372.399C132.835 371.103 129.516 369.484 128.22 368.755C126.925 368.027 121.015 365.193 115.267 362.521C109.518 359.769 102.394 356.854 99.4791 355.882C96.5645 354.911 93.6499 353.697 93.0022 353.13C92.3545 352.482 91.0591 352.077 90.1686 352.077C89.278 352.077 87.6588 351.268 86.5253 350.377C85.3919 349.487 83.7726 348.758 82.8821 348.758C81.9915 348.758 80.1294 347.948 78.753 346.977C77.3767 345.924 74.624 344.467 72.681 343.576C70.7379 342.767 65.6373 340.5 61.4273 338.638C57.2174 336.695 52.8455 334.833 51.712 334.509C50.5786 334.185 48.7974 333.294 47.6639 332.404C46.5305 331.594 45.397 330.865 45.0732 330.946C44.6684 330.946 38.5153 328.599 31.3098 325.765C24.0233 322.931 16.4939 320.179 14.4699 319.612C12.4458 319.045 10.6647 318.397 10.4218 318.074C10.1789 317.831 9.04547 316.94 7.83105 316.131C6.53567 315.402 4.51164 313.216 0.868387 307.872L0.787425 223.268C0.706464 176.715 0.463581 133.887 0.220697 128.139C-0.184109 121.176 -0.0221864 116.075 0.625503 113.161C1.35415 109.922 2.40665 107.898 4.51164 105.712C6.21182 104.012 8.23585 102.636 9.20739 102.636ZM336.533 102.717C337.019 102.636 338.476 103.284 339.61 104.093C340.824 104.822 342.282 106.603 343.01 107.898C344.063 110.003 344.306 122.067 344.63 198.98C344.953 265.125 344.791 288.118 344.144 289.494C343.577 290.466 343.172 294.838 343.172 299.372C343.172 307.063 343.091 307.63 340.905 310.139C339.691 311.516 338.153 313.54 337.505 314.592C336.857 315.645 334.428 317.183 332.242 317.993C329.976 318.802 324.551 320.907 320.098 322.688C315.645 324.389 308.764 327.303 304.716 329.084C300.668 330.946 292.167 334.833 285.69 337.828C279.213 340.824 267.393 346.248 259.377 349.972C251.362 353.616 241.728 358.068 237.923 359.688C234.118 361.388 223.026 366.812 213.23 371.67C203.433 376.609 193.394 381.871 190.965 383.328C188.374 384.867 185.379 386 183.841 386C182.221 386 181.088 385.514 180.845 384.786C180.602 384.138 180.44 334.59 180.44 274.678C180.44 171.696 180.521 165.786 181.817 165.3C182.626 165.057 186.189 163.681 189.751 162.304C193.313 161.009 196.633 159.552 197.037 159.228C197.442 158.904 201.49 157.123 205.943 155.261C210.396 153.399 217.844 150.241 222.54 148.298C227.236 146.355 231.284 145.06 231.689 145.383C232.013 145.707 232.255 157.366 232.255 196.551L236.061 199.789C238.247 201.651 240.109 203.109 240.352 203.109C240.594 203.109 242.052 202.542 243.59 201.894C245.128 201.247 248.933 198.737 252.091 196.308C255.248 193.96 259.054 190.317 260.592 188.212C262.292 185.864 264.073 184.407 265.045 184.407C265.935 184.407 268.283 185.54 270.307 186.836C272.331 188.131 274.193 189.264 274.517 189.264C274.922 189.264 275.813 189.993 276.541 190.884C277.351 191.774 279.699 192.908 281.804 193.474C285.285 194.446 285.852 194.365 287.795 192.908C288.928 192.017 290.628 189.993 291.438 188.455C292.895 185.783 292.976 183.678 292.814 152.67C292.572 121.662 292.652 119.638 293.948 119.638C294.757 119.638 299.534 117.776 304.473 115.428C309.492 113.161 315.807 110.408 318.479 109.275C321.151 108.222 326.089 106.279 329.409 105.065C332.728 103.769 335.967 102.717 336.452 102.717H336.533ZM69.9283 124.738C70.8998 125.386 77.5386 128.139 97.9408 136.235V158.337C97.9408 172.424 97.617 180.359 97.1312 180.359C96.6455 180.359 94.6214 178.982 92.4355 177.363C90.3305 175.744 86.7682 172.991 84.5822 171.291C82.3153 169.591 80.0484 168.214 79.4817 168.214C78.9959 168.214 76.1623 169.429 73.2477 170.886C70.414 172.263 67.7423 173.153 67.4185 172.829C67.0946 172.424 66.6089 161.738 66.366 149.027C66.0421 130.163 66.2041 125.791 67.0946 124.819C68.0662 123.848 68.471 123.848 69.9283 124.738ZM275.651 127.167C277.189 127.329 277.27 128.139 277.837 149.593C278.241 161.819 278.322 172.667 278.079 173.72C277.756 175.096 277.351 175.339 276.055 174.934C275.165 174.529 274.679 174.125 274.922 173.882C275.084 173.639 273.384 172.263 271.036 170.805C268.688 169.348 266.502 168.214 266.178 168.214C265.773 168.214 264.721 168.862 263.749 169.672C262.859 170.4 261.482 171.615 260.754 172.262C260.025 172.91 258.163 174.367 256.625 175.42C255.086 176.472 252.658 178.497 248.61 182.383L248.205 180.359C247.962 179.225 247.638 169.51 246.909 139.068L248.772 138.34C249.743 137.935 255.815 135.263 262.292 132.349C268.769 129.434 274.76 127.086 275.651 127.167Z" fill="#E72330"/>
<path d="M291.762 239.578L294.191 237.878C295.729 236.825 297.996 236.177 300.263 236.177C303.015 236.177 304.311 236.582 305.525 237.878C307.063 239.497 307.144 240.873 307.711 276.253L304.797 278.844C302.692 280.787 301.072 281.516 299.048 281.516C297.105 281.516 295.567 280.868 292.167 277.468L291.762 239.578Z" fill="white"/>
<path d="M254.115 257.47C254.277 256.499 255.815 254.151 257.515 252.289C260.592 248.969 260.754 248.888 264.478 249.455C266.583 249.779 268.769 250.346 269.255 250.75C270.064 251.317 270.307 255.608 270.388 266.7C270.388 275.12 270.145 283.702 269.902 285.969C269.578 288.883 268.688 290.907 266.745 293.255C265.287 295.036 263.344 296.736 262.373 297.06C260.997 297.546 259.944 297.06 254.52 292.122L254.439 276.901C254.439 268.562 254.277 261.114 254.115 260.466C253.953 259.818 253.953 258.442 254.115 257.47Z" fill="white"/>
<path d="M218.087 267.752C218.978 266.862 221.002 265.485 222.54 264.595C224.078 263.785 226.183 263.057 227.236 262.976C228.207 262.976 229.826 263.704 230.717 264.676C232.498 266.538 232.498 266.943 231.85 305.642L229.341 308.8C227.236 311.39 226.345 311.876 223.754 311.876C221.326 311.876 220.354 311.39 218.978 309.609C217.439 307.504 217.277 306.047 217.035 293.417C216.954 285.726 216.711 277.225 216.63 274.472C216.468 270.343 216.792 269.129 218.087 267.752Z" fill="white"/>
<path d="M440.335 167V68.3584H478.928C489.33 68.3584 498.294 70.216 505.817 73.9313C513.434 77.6467 519.285 83.1732 523.372 90.5109C527.552 97.8487 529.642 107.044 529.642 118.097C529.642 128.872 527.645 137.881 523.651 145.126C519.657 152.371 513.898 157.851 506.374 161.566C498.851 165.189 489.795 167 479.206 167H440.335ZM465.552 143.733H479.485C485.708 143.733 490.584 142.665 494.114 140.528C497.736 138.299 500.291 135.234 501.777 131.333C503.356 127.432 504.145 122.927 504.145 117.819C504.145 112.896 503.402 108.484 501.916 104.583C500.43 100.589 497.829 97.4772 494.114 95.248C490.399 92.9259 485.197 91.7649 478.51 91.7649H465.552V143.733ZM543.059 167V68.3584H584.717C589.176 68.3584 593.727 68.7763 598.371 69.6123C603.015 70.4482 607.334 72.0272 611.328 74.3493C615.322 76.5785 618.527 79.8294 620.942 84.102C623.356 88.3746 624.564 93.9476 624.564 100.821C624.564 105.094 623.914 109.134 622.613 112.942C621.313 116.657 619.223 119.955 616.344 122.834C613.557 125.714 609.842 128.036 605.198 129.8L628.047 167H599.346L580.398 133.701H568.277V167H543.059ZM568.277 111.549H584.857C587.271 111.549 589.361 111.317 591.126 110.852C592.984 110.388 594.516 109.738 595.724 108.902C597.024 107.973 597.999 106.858 598.65 105.558C599.3 104.258 599.625 102.725 599.625 100.96C599.625 98.3595 598.975 96.409 597.674 95.1086C596.374 93.8083 594.656 92.9259 592.519 92.4615C590.383 91.9971 587.968 91.7649 585.274 91.7649H568.277V111.549ZM686.558 168.115C676.526 168.115 667.749 166.025 660.226 161.845C652.702 157.665 646.85 151.814 642.671 144.29C638.584 136.674 636.54 127.85 636.54 117.819C636.54 107.509 638.677 98.5918 642.949 91.0682C647.222 83.4518 653.166 77.5538 660.783 73.374C668.399 69.1943 677.223 67.1045 687.254 67.1045C697.193 67.1045 705.924 69.1479 713.447 73.2347C720.971 77.3216 726.869 83.1268 731.142 90.6503C735.414 98.0809 737.551 106.905 737.551 117.122C737.551 127.153 735.414 136.024 731.142 143.733C726.962 151.349 721.017 157.34 713.308 161.706C705.692 165.978 696.775 168.115 686.558 168.115ZM687.115 144.29C693.06 144.29 697.843 142.943 701.466 140.25C705.088 137.463 707.689 134.027 709.268 129.94C710.94 125.853 711.776 121.812 711.776 117.819C711.776 114.846 711.311 111.828 710.382 108.762C709.546 105.604 708.153 102.679 706.203 99.985C704.345 97.2914 701.837 95.1086 698.679 93.4368C695.521 91.7649 691.62 90.9289 686.976 90.9289C681.124 90.9289 676.387 92.2757 672.765 94.9693C669.142 97.57 666.495 100.914 664.823 105.001C663.151 109.088 662.315 113.314 662.315 117.679C662.315 122.045 663.151 126.271 664.823 130.358C666.588 134.445 669.282 137.788 672.904 140.389C676.619 142.99 681.356 144.29 687.115 144.29ZM750.821 167V68.3584H792.201C799.91 68.3584 806.69 69.473 812.542 71.7022C818.393 73.8385 822.991 77.4609 826.335 82.5695C829.679 87.5851 831.351 94.5049 831.351 103.329C831.351 111.41 829.586 118.144 826.056 123.531C822.527 128.825 817.743 132.773 811.706 135.373C805.669 137.974 798.842 139.274 791.225 139.274H776.039V167H750.821ZM776.039 116.843H791.225C796.055 116.843 799.817 115.682 802.511 113.36C805.204 111.038 806.551 107.741 806.551 103.468C806.551 99.6599 805.343 96.7805 802.928 94.83C800.606 92.7866 796.659 91.7649 791.086 91.7649H776.039V116.843Z" fill="black"/>
<path d="M460.972 317L431 233.456H454.246L474.896 299.064L494.72 233.456H517.848L488.112 317H460.972ZM511.42 317L544.932 233.456H566.644L599.802 317H576.792L572.662 305.2H538.56L534.312 317H511.42ZM545.286 285.966H565.936L555.788 257.292L545.286 285.966ZM642.222 317.944C633.883 317.944 626.961 316.489 621.454 313.578C616.026 310.589 611.975 306.183 609.3 300.362C606.704 294.462 605.406 287.185 605.406 278.532V233.456H626.764V279.83C626.764 282.819 627.197 285.73 628.062 288.562C629.006 291.315 630.619 293.597 632.9 295.406C635.181 297.137 638.367 298.002 642.458 298.002C646.627 298.002 649.774 297.097 651.898 295.288C654.022 293.479 655.438 291.197 656.146 288.444C656.933 285.612 657.326 282.741 657.326 279.83V233.456H678.684V278.532C678.684 287.107 677.386 294.344 674.79 300.244C672.194 306.065 668.221 310.471 662.872 313.46C657.523 316.449 650.639 317.944 642.222 317.944ZM693.92 317V233.456H715.278V297.294H755.28V317H693.92ZM778.335 317V253.28H753.555V233.456H824.591V253.28H799.693V317H778.335Z" fill="#E72330"/>
</svg>
