<svg width="700" height="568" viewBox="0 0 700 568" fill="none" xmlns="http://www.w3.org/2000/svg">
<path d="M666.667 484H433.334V117.333H610.001C625.001 117.333 636.667 127.333 641.667 140.667L700.001 317.333V450.667C700.001 469 685.001 484 666.667 484Z" fill="#8BC34A"/>
<path d="M433.333 484H33.3333C15 484 0 469 0 450.667V34C0 15.6666 15 0.666626 33.3333 0.666626H400C418.333 0.666626 433.333 15.6666 433.333 34V484Z" fill="#388E3C"/>
<path d="M483.334 484C483.333 494.944 485.488 505.781 489.675 515.893C493.862 526.004 500.001 535.192 507.739 542.931C515.477 550.67 524.664 556.809 534.775 560.997C544.886 565.186 555.723 567.341 566.667 567.341C577.611 567.341 588.448 565.186 598.559 560.997C608.67 556.809 617.857 550.67 625.596 542.931C633.334 535.192 639.472 526.004 643.66 515.893C647.847 505.781 650.002 494.944 650.001 484C650.002 473.056 647.847 462.219 643.66 452.107C639.472 441.996 633.334 432.808 625.596 425.069C617.857 417.33 608.67 411.191 598.559 407.003C588.448 402.814 577.611 400.659 566.667 400.659C555.723 400.659 544.886 402.814 534.775 407.003C524.664 411.191 515.477 417.33 507.739 425.069C500.001 432.808 493.862 441.996 489.675 452.107C485.488 462.219 483.333 473.056 483.334 484Z" fill="#37474F"/>
<path d="M83.334 484C83.3329 494.944 85.4876 505.781 89.675 515.893C93.8625 526.004 100.001 535.192 107.739 542.931C115.477 550.67 124.664 556.809 134.775 560.997C144.886 565.186 155.723 567.341 166.667 567.341C177.611 567.341 188.448 565.186 198.559 560.997C208.67 556.809 217.857 550.67 225.596 542.931C233.334 535.192 239.472 526.004 243.66 515.893C247.847 505.781 250.002 494.944 250.001 484C250.002 473.056 247.847 462.219 243.66 452.107C239.472 441.996 233.334 432.808 225.596 425.069C217.857 417.33 208.67 411.191 198.559 407.003C188.448 402.814 177.611 400.659 166.667 400.659C155.723 400.659 144.886 402.814 134.775 407.003C124.664 411.191 115.477 417.33 107.739 425.069C100.001 432.808 93.8625 441.996 89.675 452.107C85.4876 462.219 83.3329 473.056 83.334 484Z" fill="#37474F"/>
<path d="M533.334 484C533.333 488.378 534.195 492.713 535.87 496.758C537.545 500.803 540 504.478 543.095 507.574C546.191 510.669 549.866 513.125 553.91 514.801C557.955 516.476 562.289 517.339 566.667 517.339C571.045 517.339 575.38 516.476 579.425 514.801C583.469 513.125 587.144 510.669 590.239 507.574C593.335 504.478 595.79 500.803 597.465 496.758C599.14 492.713 600.001 488.378 600.001 484C600.001 479.622 599.14 475.287 597.465 471.242C595.79 467.198 593.335 463.522 590.239 460.427C587.144 457.331 583.469 454.875 579.425 453.199C575.38 451.524 571.045 450.662 566.667 450.662C562.289 450.662 557.955 451.524 553.91 453.199C549.866 454.875 546.191 457.331 543.095 460.427C540 463.522 537.545 467.198 535.87 471.242C534.195 475.287 533.333 479.622 533.334 484Z" fill="#78909C"/>
<path d="M133.334 484C133.333 488.378 134.195 492.713 135.87 496.758C137.545 500.803 140 504.478 143.095 507.574C146.191 510.669 149.866 513.125 153.91 514.801C157.955 516.476 162.289 517.339 166.667 517.339C171.045 517.339 175.38 516.476 179.425 514.801C183.469 513.125 187.144 510.669 190.239 507.574C193.335 504.478 195.79 500.803 197.465 496.758C199.14 492.713 200.001 488.378 200.001 484C200.001 479.622 199.14 475.287 197.465 471.242C195.79 467.198 193.335 463.522 190.239 460.427C187.144 457.331 183.469 454.875 179.425 453.199C175.38 451.524 171.045 450.662 166.667 450.662C162.289 450.662 157.955 451.524 153.91 453.199C149.866 454.875 146.191 457.331 143.095 460.427C140 463.522 137.545 467.198 135.87 471.242C134.195 475.287 133.333 479.622 133.334 484Z" fill="#78909C"/>
<path d="M633.333 300.667H516.667C506.667 300.667 500 294 500 284V167.333C500 157.333 506.667 150.667 516.667 150.667H605C611.667 150.667 618.333 155.667 620 162.333L648.333 249C648.333 250.667 650 252.333 650 254V284C650 294 643.333 300.667 633.333 300.667Z" fill="#37474F"/>
<path d="M313.334 114L181.667 245.667L120.001 182.333L83.334 219L181.667 317.333L350.001 149L313.334 114Z" fill="#DCEDC8"/>
</svg>
