<svg width="25" height="27" viewBox="0 0 25 27" fill="none" xmlns="http://www.w3.org/2000/svg">
<path d="M18.5144 6.75208H5.84778V6.15825C5.84778 2.82813 8.55701 0.118896 11.8871 0.118896H12.4747C15.8051 0.118896 18.5144 2.82813 18.5144 6.15855V6.75208ZM6.4425 6.15736H17.9197C17.9191 3.15552 15.4766 0.713614 12.4747 0.713614H11.8871C8.8853 0.713614 6.44309 3.15552 6.4425 6.15736Z" fill="black" fill-opacity="0.26"/>
<path d="M5.34711 26.5838H3.98015C1.94622 26.5838 0.297363 24.935 0.297363 22.901V6.45471H5.34711V26.5838Z" fill="#E53238"/>
<path d="M12.1811 6.45569H5.34778V26.5839H12.1811V6.45569Z" fill="#0064D2"/>
<path d="M19.0143 6.45569H12.181V26.5839H19.0143V6.45569Z" fill="#F5AF02"/>
<path d="M20.3819 26.5838H19.0149V6.45471H24.0646V22.901C24.0646 24.935 22.4158 26.5838 20.3819 26.5838Z" fill="#86B817"/>
<path d="M5.34711 26.8812H3.97985C1.78534 26.8812 0 25.0958 0 22.901V6.45471C0 6.29057 0.133217 6.15735 0.297359 6.15735H5.34711C5.51125 6.15735 5.64446 6.29057 5.64446 6.45471V26.5838C5.64446 26.7483 5.51125 26.8812 5.34711 26.8812ZM0.594718 6.75207V22.901C0.594718 24.7678 2.11333 26.2865 3.97985 26.2865H5.04975V6.75207H0.594718Z" fill="black" fill-opacity="0.26"/>
<path d="M12.1809 26.8812H5.34704C5.1829 26.8812 5.04968 26.7483 5.04968 26.5838V6.45471C5.04968 6.29057 5.1829 6.15735 5.34704 6.15735H12.1809C12.3451 6.15735 12.4783 6.29057 12.4783 6.45471V26.5838C12.4783 26.7483 12.3451 26.8812 12.1809 26.8812ZM5.6444 26.2865H11.8836V6.75207H5.6444V26.2865Z" fill="black" fill-opacity="0.26"/>
<path d="M19.0149 26.8812H12.181C12.0169 26.8812 11.8837 26.7483 11.8837 26.5838V6.45471C11.8837 6.29057 12.0169 6.15735 12.181 6.15735H19.0149C19.1794 6.15735 19.3123 6.29057 19.3123 6.45471V26.5838C19.3123 26.7483 19.1794 26.8812 19.0149 26.8812ZM12.4784 26.2865H18.7176V6.75207H12.4784V26.2865Z" fill="black" fill-opacity="0.26"/>
<path d="M20.382 26.8812H19.015C18.8506 26.8812 18.7177 26.7483 18.7177 26.5838V6.45471C18.7177 6.29057 18.8506 6.15735 19.015 6.15735H24.0645C24.2289 6.15735 24.3618 6.29057 24.3618 6.45471V22.901C24.3621 25.0958 22.5768 26.8812 20.382 26.8812ZM19.3124 26.2865H20.382C22.2485 26.2865 23.7674 24.7678 23.7674 22.901V6.75207H19.3124V26.2865Z" fill="black" fill-opacity="0.26"/>
</svg>
